<?xml version="1.0" encoding="iso-8859-1"?>
<!-- Generator: Adobe Illustrator 19.0.0, SVG Export Plug-In . SVG Version: 6.00 Build 0)  -->
<svg version="1.1" id="Capa_1" xmlns="http://www.w3.org/2000/svg" xmlns:xlink="http://www.w3.org/1999/xlink" x="0px" y="0px"
	 viewBox="0 0 480.256 480.256" style="enable-background:new 0 0 480.256 480.256;" xml:space="preserve">
<g>
	<g>
		<g>
			<rect x="102.273" y="95.013" transform="matrix(0.5199 0.8543 -0.8543 0.5199 140.9474 -44.744)" width="16.008" height="16"/>
			<rect x="156.948" y="61.751" transform="matrix(0.5199 0.8543 -0.8543 0.5199 138.7857 -107.4203)" width="16.008" height="16"/>
			<rect x="129.611" y="78.386" transform="matrix(0.5199 0.8543 -0.8543 0.5199 139.8696 -76.0802)" width="16.008" height="16"/>
			<rect x="184.293" y="45.12" transform="matrix(0.5199 0.8542 -0.8542 0.5199 137.7067 -138.7642)" width="16.008" height="16"/>
			<rect x="48.144" y="224" width="16" height="16"/>
			<rect x="48.144" y="192" width="16" height="16"/>
			<rect x="48.144" y="288" width="16" height="16"/>
			<rect x="48.144" y="256" width="16" height="16"/>
			<rect x="127.729" y="388.964" transform="matrix(-0.8705 -0.4922 0.4922 -0.8705 58.4758 809.3157)" width="16" height="16"/>
			<rect x="155.553" y="404.71" transform="matrix(-0.8705 -0.4922 0.4922 -0.8705 102.766 852.4639)" width="16" height="16"/>
			<rect x="183.379" y="420.475" transform="matrix(-0.8705 -0.4922 0.4922 -0.8705 147.0538 895.6492)" width="16" height="16"/>
			<rect x="99.83" y="373.202" transform="matrix(-0.8705 -0.4922 0.4922 -0.8705 14.0482 766.1015)" width="16" height="16"/>
			<rect x="283.846" y="418.829" transform="matrix(-0.4921 -0.8705 0.8705 -0.4921 63.9091 890.9429)" width="16" height="16"/>
			<rect x="339.553" y="387.27" transform="matrix(-0.4921 -0.8705 0.8705 -0.4921 174.5041 892.3478)" width="16" height="16"/>
			<rect x="367.406" y="371.53" transform="matrix(-0.4921 -0.8705 0.8705 -0.4921 229.766 893.108)" width="16" height="16"/>
			<rect x="311.696" y="403.044" transform="matrix(-0.4921 -0.8705 0.8705 -0.4921 119.2057 891.6329)" width="16" height="16"/>
			<path d="M440.033,333.968c-1.201-1.05-2.504-1.977-3.889-2.768h0c-1.273-0.725-2.613-1.328-4-1.8V320h-16v9.496
				c-1.002,0.33-1.98,0.728-2.928,1.192l-44.584-25.744c20.683-40.826,20.683-89.062,0-129.888l38.48-22.216
				c2.548,2.541,5.635,4.477,9.032,5.664V176h16v-17.6c1.381-0.429,2.72-0.983,4-1.656c11.488-6.627,15.427-21.313,8.8-32.8
				c-6.627-11.488-21.313-15.427-32.8-8.8c-1.078,0.653-2.103,1.392-3.064,2.208l-8.048-4.896l-8.32,13.672l8.048,4.896
				c-0.51,2.364-0.661,4.791-0.448,7.2l-39.72,22.936c-24.891-38.43-66.72-62.573-112.448-64.904V46.528
				c2.565-0.923,4.954-2.275,7.064-4l14.488,8.8l8.32-13.664c0,0-14.4-8.736-14.4-8.8c0.353-1.597,0.53-3.228,0.528-4.864
				c0-13.255-10.745-24-24-24c-13.255,0-24,10.745-24,24c0.003,1.653,0.175,3.302,0.512,4.92l-8,4.88l8.288,13.672l8.12-4.944
				c2.108,1.728,4.497,3.081,7.064,4v49.728c-6.687,0.339-13.343,1.141-19.92,2.4c-38.069,7.393-71.481,29.981-92.528,62.552
				l-39.72-22.936c0.223-2.409,0.069-4.838-0.456-7.2c0-0.048,14.4-8.736,14.4-8.736l-8.32-13.664c0,0-14.344,8.8-14.4,8.72
				c-0.946-0.814-1.967-1.537-3.048-2.16c-11.487-6.627-26.173-2.688-32.8,8.8c-6.627,11.488-2.688,26.173,8.8,32.8
				c1.285,0.645,2.626,1.17,4.008,1.568V176h16v-17.496c3.399-1.184,6.489-3.117,9.04-5.656l38.472,22.208
				c-20.683,40.826-20.683,89.062,0,129.888L67.072,330.68c-0.949-0.458-1.927-0.853-2.928-1.184V320h-16v9.416
				c-12.521,4.35-19.144,18.027-14.793,30.548c4.35,12.521,18.027,19.144,30.548,14.793c2.951-1.025,5.673-2.617,8.014-4.685
				l11.104,6.28l7.872-13.928l-11.2-6.344c0.794-4.495,0.271-9.123-1.504-13.328l41.528-24
				c24.868,38.459,66.693,62.637,112.432,64.992v49.728c-2.818,1.01-5.423,2.538-7.68,4.504l-8.232-4.656l-7.872,13.928l8.2,4.64
				c-2.41,13.034,6.203,25.554,19.237,27.964c13.034,2.41,25.554-6.203,27.963-19.237c0.533-2.885,0.533-5.842,0-8.727l11.2-6.312
				l-7.872-13.928l-11.2,6.328c-2.255-1.969-4.861-3.497-7.68-4.504v-49.728c6.687-0.339,13.343-1.141,19.92-2.4
				c38.069-7.393,71.481-29.981,92.528-62.552l41.528,24c-1.771,4.206-2.293,8.833-1.504,13.328l-8.256,4.672l7.872,13.928
				l8.152-4.608c9.981,8.722,25.143,7.702,33.865-2.279C451.035,357.852,450.014,342.69,440.033,333.968z M420.094,129.101
				c0.017-0.01,0.033-0.019,0.05-0.029v-0.016c3.826-2.209,8.719-0.898,10.928,2.928c2.209,3.826,0.898,8.719-2.928,10.928
				c-3.826,2.209-8.719,0.898-10.928-2.928c0,0,0,0,0,0C415.006,136.184,416.294,131.312,420.094,129.101z M63.072,140
				c-2.209,3.826-7.102,5.137-10.928,2.928c-3.826-2.209-5.137-7.102-2.928-10.928c1.429-2.475,4.07-4,6.928-4
				c1.405-0.005,2.786,0.366,4,1.072C63.97,131.281,65.281,136.174,63.072,140z M60.144,358.928
				c-3.826,2.209-8.719,0.898-10.928-2.928c-2.209-3.826-0.898-8.719,2.928-10.928c3.826-2.209,8.719-0.898,10.928,2.928
				c0,0,0,0,0,0C65.281,351.826,63.97,356.719,60.144,358.928z M279.72,118.192c1.12,0.368,2.232,0.8,3.344,1.16
				c1.376,0.48,2.744,0.968,4.096,1.504c1.104,0.432,2.192,0.896,3.288,1.36c1.328,0.56,2.656,1.136,4,1.752
				c1.072,0.496,2.128,1.024,3.2,1.552c1.296,0.648,2.584,1.312,3.848,2c1.04,0.568,2.056,1.144,3.08,1.736
				c1.253,0.736,2.496,1.491,3.728,2.264c0.992,0.616,1.968,1.248,2.944,1.904c1.216,0.8,2.4,1.656,3.608,2.512
				c0.944,0.68,1.88,1.36,2.808,2.064c1.176,0.896,2.336,1.832,3.488,2.776c0.888,0.728,1.776,1.456,2.64,2.208
				c1.144,0.984,2.256,2.016,3.368,3.048c0.8,0.8,1.656,1.528,2.464,2.328c1.112,1.088,2.192,2.224,3.272,3.368
				c0.744,0.8,1.504,1.6,2.24,2.4c1.088,1.208,2.136,2.472,3.2,3.736c0.664,0.8,1.352,1.6,2,2.4c1.072,1.36,2.096,2.768,3.12,4.176
				c0.568,0.8,1.16,1.536,1.712,2.336c0.096,0.136,0.184,0.288,0.288,0.432c-12.087,7.318-25.204,12.781-38.912,16.208
				c-4.155-23.689-13.693-46.107-27.88-65.528C279.032,118,279.344,118.088,279.72,118.192z M296.144,240
				c0.008,12.428-0.818,24.843-2.472,37.16c-35.354-6.88-71.702-6.88-107.056,0c-3.296-24.664-3.296-49.656,0-74.32
				c17.632,3.46,35.56,5.188,53.528,5.16c17.968,0.03,35.896-1.698,53.528-5.16C295.326,215.157,296.152,227.572,296.144,240z
				 M240.144,16c4.418,0,8,3.582,8,8s-3.582,8-8,8s-8-3.582-8-8S235.726,16,240.144,16z M240.144,112
				c20.184,0,41.424,28.68,50.904,75.056c-16.764,3.318-33.815,4.974-50.904,4.944c-17.089,0.028-34.14-1.628-50.904-4.944
				C198.72,140.68,219.96,112,240.144,112z M135.168,166.784L135.168,166.784c0.608-0.88,1.256-1.72,1.888-2.576
				c0.96-1.32,1.92-2.648,2.928-3.92c0.704-0.896,1.448-1.744,2.176-2.616c0.992-1.184,1.976-2.4,3.008-3.528
				c0.8-0.864,1.6-1.696,2.4-2.544c1.024-1.08,2.056-2.168,3.12-3.2c0.84-0.8,1.712-1.6,2.584-2.4
				c1.072-0.992,2.144-1.984,3.24-2.936c0.904-0.8,1.832-1.544,2.752-2.304c1.12-0.912,2.24-1.816,3.376-2.688
				c0.96-0.728,1.928-1.432,2.904-2.128c1.16-0.8,2.328-1.656,3.512-2.448c1-0.672,2.008-1.32,3.032-1.96
				c1.2-0.757,2.416-1.493,3.648-2.208c1.04-0.608,2.08-1.2,3.144-1.776c1.248-0.68,2.512-1.328,3.784-1.968
				c1.072-0.536,2.152-1.072,3.24-1.6c1.296-0.6,2.6-1.168,3.912-1.728c1.112-0.464,2.216-0.936,3.336-1.376
				c1.336-0.528,2.696-1.008,4.056-1.488c1.12-0.4,2.24-0.8,3.376-1.168c0.344-0.112,0.688-0.2,1.024-0.304
				c-14.176,19.413-23.709,41.82-27.864,65.496c-13.686-3.436-26.781-8.902-38.848-16.216
				C134.992,167.056,135.072,166.912,135.168,166.784z M112.144,240c-0.012-20.601,4.962-40.898,14.496-59.16
				c13.761,8.385,28.719,14.625,44.36,18.504c-3.808,26.97-3.808,54.342,0,81.312c-15.642,3.894-30.6,10.147-44.36,18.544
				C117.098,280.927,112.125,260.614,112.144,240z M200.568,361.808c-1.12-0.368-2.232-0.8-3.344-1.16
				c-1.376-0.48-2.744-0.968-4.096-1.504c-1.104-0.432-2.192-0.896-3.288-1.36c-1.328-0.56-2.656-1.136-4-1.752
				c-1.072-0.496-2.128-1.024-3.2-1.552c-1.296-0.648-2.584-1.312-3.848-2c-1.04-0.568-2.056-1.144-3.08-1.736
				c-1.253-0.736-2.496-1.491-3.728-2.264c-0.992-0.616-1.968-1.248-2.944-1.904c-1.216-0.8-2.4-1.656-3.608-2.512
				c-0.944-0.68-1.88-1.36-2.808-2.064c-1.176-0.896-2.336-1.832-3.488-2.776c-0.88-0.728-1.768-1.456-2.64-2.208
				c-1.144-0.992-2.264-2.024-3.376-3.056c-0.8-0.8-1.648-1.52-2.448-2.312c-1.12-1.096-2.2-2.24-3.28-3.376
				c-0.752-0.8-1.504-1.6-2.24-2.4c-1.088-1.208-2.136-2.472-3.2-3.736c-0.664-0.8-1.352-1.6-2-2.4
				c-1.072-1.36-2.096-2.768-3.12-4.176c-0.568-0.8-1.16-1.536-1.712-2.336c-0.096-0.136-0.184-0.288-0.288-0.432
				c12.087-7.318,25.204-12.781,38.912-16.208c4.155,23.689,13.693,46.107,27.88,65.528
				C201.256,362,200.944,361.912,200.568,361.808z M240.144,464c-4.418,0-8-3.582-8-8s3.582-8,8-8s8,3.582,8,8
				S244.562,464,240.144,464z M240.144,368c-20.184,0-41.424-28.68-50.904-75.056c33.616-6.592,68.192-6.592,101.808,0
				C281.568,339.32,260.328,368,240.144,368z M345.12,313.216L345.12,313.216c-0.608,0.88-1.256,1.72-1.888,2.576
				c-0.96,1.32-1.92,2.648-2.928,3.92c-0.704,0.896-1.448,1.744-2.176,2.616c-0.992,1.184-1.976,2.4-3.008,3.528
				c-0.8,0.864-1.6,1.696-2.4,2.544c-1.024,1.08-2.056,2.168-3.12,3.2c-0.8,0.8-1.712,1.6-2.584,2.4
				c-1.072,0.992-2.144,1.984-3.24,2.936c-0.904,0.8-1.832,1.544-2.752,2.304c-1.12,0.912-2.24,1.816-3.376,2.688
				c-0.96,0.728-1.928,1.432-2.904,2.128c-1.16,0.8-2.328,1.656-3.512,2.448c-1,0.672-2.008,1.32-3.032,1.96
				c-1.2,0.757-2.416,1.493-3.648,2.208c-1.04,0.608-2.08,1.2-3.144,1.776c-1.248,0.68-2.512,1.328-3.784,1.968
				c-1.072,0.536-2.152,1.072-3.24,1.6c-1.296,0.6-2.6,1.168-3.912,1.728c-1.112,0.464-2.216,0.936-3.336,1.376
				c-1.336,0.528-2.696,1.008-4.056,1.488c-1.12,0.4-2.24,0.8-3.376,1.168c-0.344,0.112-0.688,0.2-1.024,0.304
				c14.176-19.413,23.709-41.82,27.864-65.496c13.686,3.436,26.781,8.902,38.848,16.216
				C345.296,312.944,345.216,313.088,345.12,313.216z M353.648,299.2c-13.761-8.385-28.719-14.625-44.36-18.504
				c3.808-26.97,3.808-54.342,0-81.312c15.64-3.882,30.598-10.121,44.36-18.504C372.971,217.953,372.971,262.127,353.648,299.2z
				 M431.072,356c-2.209,3.826-7.102,5.137-10.928,2.928c-3.826-2.209-5.137-7.102-2.928-10.928c1.429-2.475,4.07-4,6.928-4
				c1.405-0.005,2.786,0.365,4,1.072C431.97,347.281,433.281,352.174,431.072,356z"/>
			<rect x="416.144" y="224" width="16" height="16"/>
			<rect x="416.144" y="192" width="16" height="16"/>
			<rect x="416.144" y="288" width="16" height="16"/>
			<rect x="416.144" y="256" width="16" height="16"/>
			<rect x="341.036" y="82.224" transform="matrix(0.8543 0.5198 -0.5198 0.8543 97.7596 -168.282)" width="16" height="16.008"/>
			<rect x="368.374" y="98.877" transform="matrix(0.8543 0.5198 -0.5198 0.8543 110.3981 -180.0648)" width="16" height="16.008"/>
			<rect x="313.7" y="65.568" transform="matrix(0.8543 0.5198 -0.5198 0.8543 85.1182 -156.4994)" width="16" height="16.008"/>
			<rect x="286.362" y="48.979" transform="matrix(0.8543 0.5198 -0.5198 0.8543 72.5115 -144.7056)" width="16" height="16.008"/>
		</g>
	</g>
</g>
<g>
</g>
<g>
</g>
<g>
</g>
<g>
</g>
<g>
</g>
<g>
</g>
<g>
</g>
<g>
</g>
<g>
</g>
<g>
</g>
<g>
</g>
<g>
</g>
<g>
</g>
<g>
</g>
<g>
</g>
</svg>
